<svg xmlns="http://www.w3.org/2000/svg" width="512" height="512" viewBox="0 0 512 512" role="img" aria-labelledby="title desc">
  <title id="title">Dr. Stonk avatar</title>
  <desc id="desc">Educator avatar for Dr. Stonk: a logical green space-alien financial explainer with an arrowhead starburst insignia.</desc>
  <defs>
    <linearGradient id="bg" x1="56" y1="48" x2="456" y2="464" gradientUnits="userSpaceOnUse">
      <stop stop-color="#0f766e"/>
      <stop offset="1" stop-color="#111827"/>
    </linearGradient>
    <filter id="shadow" x="-20%" y="-20%" width="140%" height="140%">
      <feDropShadow dx="0" dy="14" stdDeviation="18" flood-color="#000" flood-opacity=".32"/>
    </filter>
    <clipPath id="avatarClip"><circle cx="256" cy="256" r="240"/></clipPath>
  </defs>
  <circle cx="256" cy="256" r="248" fill="#020617"/>
  <g clip-path="url(#avatarClip)">
    <rect width="512" height="512" fill="url(#bg)"/>
    <path d="M40 408c94-62 166-62 232 0s132 62 200 0v104H40z" fill="#14b8a6" opacity=".16"/>
    <g filter="url(#shadow)">
      <path d="M112 512c18-122 80-194 144-194s126 72 144 194z" fill="#0f172a"/>
      <path d="M188 360h136l-68 118z" fill="#111827"/>
      <path d="M256 350 308 512H204z" fill="#1f2937"/>
      <path d="M202 382h108l-54 94z" fill="#a7f3d0"/>
      <path d="M174 226 66 166l70 138z" fill="#8fd694"/>
      <path d="m338 226 108-60-70 138z" fill="#8fd694"/>
      <path d="M166 238c0-80 42-138 90-138s90 58 90 138v50c0 82-46 130-90 130s-90-48-90-130z" fill="#8fd694"/>
      <path d="M164 220c18-84 72-128 136-106 38 13 62 50 60 106-62-26-128-26-196 0z" fill="#111827"/>
      <path d="M194 214c24-16 50-20 78-12" fill="none" stroke="#020617" stroke-width="8" stroke-linecap="round" opacity=".38"/>
      <path d="M218 250c12-10 28-10 40 0" fill="none" stroke="#020617" stroke-width="9" stroke-linecap="round"/>
      <path d="M254 250c12-10 28-10 40 0" fill="none" stroke="#020617" stroke-width="9" stroke-linecap="round"/>
      <circle cx="236" cy="260" r="8" fill="#020617"/>
      <circle cx="276" cy="260" r="8" fill="#020617"/>
      <path d="M236 328c12 10 28 14 42 0" fill="none" stroke="#14532d" stroke-width="9" stroke-linecap="round"/>
      <g transform="translate(256 414)">
        <path d="M0-72 46 60 0 34-46 60z" fill="#a7f3d0" stroke="#020617" stroke-width="9" stroke-linejoin="round"/>
        <path d="M0-44 18 26 0 14-18 26z" fill="#020617"/>
        <path d="M0-104v26M0 72v26M-72 0h26M46 0h26M-50-50l20 20M30 30l20 20M50-50 30-30M-30 30l-20 20" stroke="#f8fafc" stroke-width="8" stroke-linecap="round"/>
      </g>
    </g>
  </g>
</svg>
